<mxfile host="app.diagrams.net" modified="2020-08-12T09:15:13.404Z" agent="5.0 (Windows NT 10.0; Win64; x64) AppleWebKit/537.36 (KHTML, like Gecko) Chrome/84.0.4147.125 Safari/537.36" etag="_LBMnZ2-XlgdV0_MsMSA" version="13.6.2" type="github">
  <diagram id="kgpKYQtTHZ0yAKxKKP6v" name="Page-1">
    <mxGraphModel dx="865" dy="457" grid="1" gridSize="10" guides="1" tooltips="1" connect="1" arrows="1" fold="1" page="1" pageScale="1" pageWidth="850" pageHeight="1100" math="0" shadow="0">
      <root>
        <mxCell id="0" />
        <mxCell id="1" parent="0" />
        <mxCell id="3nuBFxr9cyL0pnOWT2aG-1" value="Client" style="shape=umlLifeline;perimeter=lifelinePerimeter;container=1;collapsible=0;recursiveResize=0;rounded=0;shadow=0;strokeWidth=1;" parent="1" vertex="1">
          <mxGeometry x="120" y="80" width="100" height="300" as="geometry" />
        </mxCell>
        <mxCell id="3nuBFxr9cyL0pnOWT2aG-2" value="" style="points=[];perimeter=orthogonalPerimeter;rounded=0;shadow=0;strokeWidth=1;" parent="3nuBFxr9cyL0pnOWT2aG-1" vertex="1">
          <mxGeometry x="45" y="70" width="10" height="190" as="geometry" />
        </mxCell>
        <mxCell id="3nuBFxr9cyL0pnOWT2aG-3" value="Start" style="verticalAlign=bottom;startArrow=oval;endArrow=block;startSize=8;shadow=0;strokeWidth=1;" parent="3nuBFxr9cyL0pnOWT2aG-1" target="3nuBFxr9cyL0pnOWT2aG-2" edge="1">
          <mxGeometry relative="1" as="geometry">
            <mxPoint x="-15" y="70" as="sourcePoint" />
          </mxGeometry>
        </mxCell>
        <mxCell id="3nuBFxr9cyL0pnOWT2aG-5" value="TodoList Service" style="shape=umlLifeline;perimeter=lifelinePerimeter;container=1;collapsible=0;recursiveResize=0;rounded=0;shadow=0;strokeWidth=1;" parent="1" vertex="1">
          <mxGeometry x="300" y="80" width="100" height="300" as="geometry" />
        </mxCell>
        <mxCell id="3nuBFxr9cyL0pnOWT2aG-6" value="" style="points=[];perimeter=orthogonalPerimeter;rounded=0;shadow=0;strokeWidth=1;" parent="3nuBFxr9cyL0pnOWT2aG-5" vertex="1">
          <mxGeometry x="45" y="80" width="10" height="160" as="geometry" />
        </mxCell>
        <mxCell id="3nuBFxr9cyL0pnOWT2aG-7" value="return.Json resulf  todo-list" style="verticalAlign=bottom;endArrow=open;dashed=1;endSize=8;exitX=0;exitY=0.95;shadow=0;strokeWidth=1;" parent="1" source="3nuBFxr9cyL0pnOWT2aG-6" target="3nuBFxr9cyL0pnOWT2aG-2" edge="1">
          <mxGeometry y="-12" relative="1" as="geometry">
            <mxPoint x="275" y="236" as="targetPoint" />
            <mxPoint as="offset" />
          </mxGeometry>
        </mxCell>
        <mxCell id="3nuBFxr9cyL0pnOWT2aG-8" value="call http request with path api/todo-list" style="verticalAlign=bottom;endArrow=block;entryX=0;entryY=0;shadow=0;strokeWidth=1;" parent="1" source="3nuBFxr9cyL0pnOWT2aG-2" target="3nuBFxr9cyL0pnOWT2aG-6" edge="1">
          <mxGeometry y="10" relative="1" as="geometry">
            <mxPoint x="275" y="160" as="sourcePoint" />
            <mxPoint as="offset" />
          </mxGeometry>
        </mxCell>
        <mxCell id="PiL4dljiPsl6NuMwLL5H-1" value="Get todoList Sequence" style="text;html=1;align=center;verticalAlign=middle;resizable=0;points=[];autosize=1;" vertex="1" parent="1">
          <mxGeometry x="80" y="40" width="140" height="20" as="geometry" />
        </mxCell>
        <mxCell id="PiL4dljiPsl6NuMwLL5H-2" value="Database&#xa;(memory)" style="shape=umlLifeline;perimeter=lifelinePerimeter;container=1;collapsible=0;recursiveResize=0;rounded=0;shadow=0;strokeWidth=1;" vertex="1" parent="1">
          <mxGeometry x="470" y="80" width="100" height="300" as="geometry" />
        </mxCell>
        <mxCell id="PiL4dljiPsl6NuMwLL5H-3" value="" style="points=[];perimeter=orthogonalPerimeter;rounded=0;shadow=0;strokeWidth=1;" vertex="1" parent="PiL4dljiPsl6NuMwLL5H-2">
          <mxGeometry x="45" y="80" width="10" height="160" as="geometry" />
        </mxCell>
        <mxCell id="PiL4dljiPsl6NuMwLL5H-4" value="call api/todo-list" style="verticalAlign=bottom;endArrow=block;shadow=0;strokeWidth=1;exitX=1.028;exitY=0.25;exitDx=0;exitDy=0;exitPerimeter=0;entryX=-0.065;entryY=0.248;entryDx=0;entryDy=0;entryPerimeter=0;" edge="1" parent="1" source="3nuBFxr9cyL0pnOWT2aG-6" target="PiL4dljiPsl6NuMwLL5H-3">
          <mxGeometry relative="1" as="geometry">
            <mxPoint x="360" y="200" as="sourcePoint" />
            <mxPoint x="510" y="200" as="targetPoint" />
          </mxGeometry>
        </mxCell>
        <mxCell id="PiL4dljiPsl6NuMwLL5H-5" value="return todo-list" style="verticalAlign=bottom;endArrow=open;dashed=1;endSize=8;shadow=0;strokeWidth=1;entryX=1.036;entryY=0.752;entryDx=0;entryDy=0;entryPerimeter=0;exitX=0.036;exitY=0.748;exitDx=0;exitDy=0;exitPerimeter=0;" edge="1" parent="1" source="PiL4dljiPsl6NuMwLL5H-3" target="3nuBFxr9cyL0pnOWT2aG-6">
          <mxGeometry y="-12" relative="1" as="geometry">
            <mxPoint x="360" y="279.9999999999998" as="targetPoint" />
            <mxPoint x="520" y="280" as="sourcePoint" />
            <mxPoint as="offset" />
          </mxGeometry>
        </mxCell>
        <mxCell id="PiL4dljiPsl6NuMwLL5H-19" value="Client" style="shape=umlLifeline;perimeter=lifelinePerimeter;container=1;collapsible=0;recursiveResize=0;rounded=0;shadow=0;strokeWidth=1;" vertex="1" parent="1">
          <mxGeometry x="120" y="440" width="100" height="300" as="geometry" />
        </mxCell>
        <mxCell id="PiL4dljiPsl6NuMwLL5H-20" value="" style="points=[];perimeter=orthogonalPerimeter;rounded=0;shadow=0;strokeWidth=1;" vertex="1" parent="PiL4dljiPsl6NuMwLL5H-19">
          <mxGeometry x="45" y="70" width="10" height="190" as="geometry" />
        </mxCell>
        <mxCell id="PiL4dljiPsl6NuMwLL5H-21" value="Start" style="verticalAlign=bottom;startArrow=oval;endArrow=block;startSize=8;shadow=0;strokeWidth=1;" edge="1" parent="PiL4dljiPsl6NuMwLL5H-19" target="PiL4dljiPsl6NuMwLL5H-20">
          <mxGeometry relative="1" as="geometry">
            <mxPoint x="-15" y="70" as="sourcePoint" />
          </mxGeometry>
        </mxCell>
        <mxCell id="PiL4dljiPsl6NuMwLL5H-22" value="TodoList Service" style="shape=umlLifeline;perimeter=lifelinePerimeter;container=1;collapsible=0;recursiveResize=0;rounded=0;shadow=0;strokeWidth=1;" vertex="1" parent="1">
          <mxGeometry x="300" y="440" width="100" height="300" as="geometry" />
        </mxCell>
        <mxCell id="PiL4dljiPsl6NuMwLL5H-23" value="" style="points=[];perimeter=orthogonalPerimeter;rounded=0;shadow=0;strokeWidth=1;" vertex="1" parent="PiL4dljiPsl6NuMwLL5H-22">
          <mxGeometry x="45" y="80" width="10" height="160" as="geometry" />
        </mxCell>
        <mxCell id="PiL4dljiPsl6NuMwLL5H-24" value="return.http status 200 or not" style="verticalAlign=bottom;endArrow=open;dashed=1;endSize=8;exitX=0;exitY=0.95;shadow=0;strokeWidth=1;" edge="1" parent="1" source="PiL4dljiPsl6NuMwLL5H-23" target="PiL4dljiPsl6NuMwLL5H-20">
          <mxGeometry y="-12" relative="1" as="geometry">
            <mxPoint x="275" y="596" as="targetPoint" />
            <mxPoint as="offset" />
          </mxGeometry>
        </mxCell>
        <mxCell id="PiL4dljiPsl6NuMwLL5H-25" value="call http request with path api/todo-list/create" style="verticalAlign=bottom;endArrow=block;entryX=0;entryY=0;shadow=0;strokeWidth=1;" edge="1" parent="1" source="PiL4dljiPsl6NuMwLL5H-20" target="PiL4dljiPsl6NuMwLL5H-23">
          <mxGeometry y="20" relative="1" as="geometry">
            <mxPoint x="275" y="520" as="sourcePoint" />
            <mxPoint as="offset" />
          </mxGeometry>
        </mxCell>
        <mxCell id="PiL4dljiPsl6NuMwLL5H-26" value="Get todoList Sequence" style="text;html=1;align=center;verticalAlign=middle;resizable=0;points=[];autosize=1;" vertex="1" parent="1">
          <mxGeometry x="80" y="400" width="140" height="20" as="geometry" />
        </mxCell>
        <mxCell id="PiL4dljiPsl6NuMwLL5H-27" value="Database&#xa;(memory)" style="shape=umlLifeline;perimeter=lifelinePerimeter;container=1;collapsible=0;recursiveResize=0;rounded=0;shadow=0;strokeWidth=1;" vertex="1" parent="1">
          <mxGeometry x="470" y="440" width="100" height="300" as="geometry" />
        </mxCell>
        <mxCell id="PiL4dljiPsl6NuMwLL5H-28" value="" style="points=[];perimeter=orthogonalPerimeter;rounded=0;shadow=0;strokeWidth=1;" vertex="1" parent="PiL4dljiPsl6NuMwLL5H-27">
          <mxGeometry x="45" y="80" width="10" height="160" as="geometry" />
        </mxCell>
        <mxCell id="PiL4dljiPsl6NuMwLL5H-29" value="save task to db" style="verticalAlign=bottom;endArrow=block;shadow=0;strokeWidth=1;exitX=1.028;exitY=0.25;exitDx=0;exitDy=0;exitPerimeter=0;entryX=-0.065;entryY=0.248;entryDx=0;entryDy=0;entryPerimeter=0;" edge="1" parent="1" source="PiL4dljiPsl6NuMwLL5H-23" target="PiL4dljiPsl6NuMwLL5H-28">
          <mxGeometry relative="1" as="geometry">
            <mxPoint x="360" y="560" as="sourcePoint" />
            <mxPoint x="510" y="560" as="targetPoint" />
          </mxGeometry>
        </mxCell>
        <mxCell id="PiL4dljiPsl6NuMwLL5H-30" value="return  success or not" style="verticalAlign=bottom;endArrow=open;dashed=1;endSize=8;shadow=0;strokeWidth=1;entryX=1.036;entryY=0.752;entryDx=0;entryDy=0;entryPerimeter=0;exitX=0.036;exitY=0.748;exitDx=0;exitDy=0;exitPerimeter=0;" edge="1" parent="1" source="PiL4dljiPsl6NuMwLL5H-28" target="PiL4dljiPsl6NuMwLL5H-23">
          <mxGeometry y="-12" relative="1" as="geometry">
            <mxPoint x="360" y="639.9999999999998" as="targetPoint" />
            <mxPoint x="520" y="640" as="sourcePoint" />
            <mxPoint as="offset" />
          </mxGeometry>
        </mxCell>
        <mxCell id="PiL4dljiPsl6NuMwLL5H-32" value="method post with&lt;br&gt;requset body {&quot;task&quot;:&quot;detail}" style="text;html=1;align=center;verticalAlign=middle;resizable=0;points=[];autosize=1;" vertex="1" parent="1">
          <mxGeometry x="170" y="535" width="160" height="30" as="geometry" />
        </mxCell>
      </root>
    </mxGraphModel>
  </diagram>
</mxfile>
